<svg xmlns="http://www.w3.org/2000/svg" viewBox="0 0 48 48">
  <path d="M38.9 25.9l2.8-1.6c0.4-0.2 0.6-0.7 0.4-1.1l-2.7-4.7c-0.2-0.4-0.7-0.5-1.1-0.3l-2.8 1.6c-0.8-0.6-1.7-1.1-2.6-1.5l-0.4-3.2c-0.1-0.4-0.5-0.7-0.9-0.7h-5.4c-0.4 0-0.8 0.3-0.9 0.7l-0.4 3.2c-0.9 0.4-1.8 0.9-2.6 1.5l-2.8-1.6c-0.4-0.2-0.9-0.1-1.1 0.3l-2.7 4.7c-0.2 0.4-0.1 0.9 0.4 1.1l2.8 1.6c-0.1 0.5-0.1 1-0.1 1.5s0 1 0.1 1.5l-2.8 1.6c-0.4 0.2-0.6 0.7-0.4 1.1l2.7 4.7c0.2 0.4 0.7 0.5 1.1 0.3l2.8-1.6c0.8 0.6 1.7 1.1 2.6 1.5l0.4 3.2c0.1 0.4 0.5 0.7 0.9 0.7h5.4c0.4 0 0.8-0.3 0.9-0.7l0.4-3.2c0.9-0.4 1.8-0.9 2.6-1.5l2.8 1.6c0.4 0.2 0.9 0.1 1.1-0.3l2.7-4.7c0.2-0.4 0.1-0.9-0.4-1.1l-2.8-1.6c0.1-0.5 0.1-1 0.1-1.5s0-1-0.1-1.5zm-14.9 4.6c-2.2 0-4-1.8-4-4s1.8-4 4-4 4 1.8 4 4-1.8 4-4 4z" fill="currentColor"/>
</svg>
